{
  "accessors": [
    {
      "bufferView": 2,
      "componentType": 5126,
      "count": 559,
      "max": [
        0.9999997019767761,
        1.0,
        0.9999994039535522
      ],
      "min": [
        -0.9999990463256836,
        -1.0,
        -0.9999987483024597
      ],
      "type": "VEC3"
    },
    {
      "bufferView": 2,
      "byteOffset": 6708,
      "componentType": 5126,
      "count": 559,
      "max": [
        1.0,
        1.0,
        0.9995303153991699
      ],
      "min": [
        -0.9998419880867004,
        -0.9984248876571655,
        -1.0
      ],
      "type": "VEC3"
    },
    {
      "bufferView": 1,
      "componentType": 5126,
      "count": 559,
      "max": [
        1.0000001192092896,
        1.0
      ],
      "min": [
        0.0,
        0.0
      ],
      "type": "VEC2"
    },
    {
      "bufferView": 0,
      "componentType": 5125,
      "count": 2880,
      "type": "SCALAR"
    },
    {
      "bufferView": 2,
      "byteOffset": 13416,
      "componentType": 5126,
      "count": 559,
      "max": [
        0.9999997019767761,
        1.0,
        0.9999994039535522
      ],
      "min": [
        -0.9999990463256836,
        -1.0,
        -0.9999987483024597
      ],
      "type": "VEC3"
    },
    {
      "bufferView": 2,
      "byteOffset": 20124,
      "componentType": 5126,
      "count": 559,
      "max": [
        1.0,
        1.0,
        1.0
      ],
      "min": [
        -1.0,
        -1.0,
        -1.0
      ],
      "type": "VEC3"
    },
    {
      "bufferView": 1,
      "byteOffset": 4472,
      "componentType": 5126,
      "count": 559,
      "max": [
        1.0000001192092896,
        1.0
      ],
      "min": [
        0.0,
        0.0
      ],
      "type": "VEC2"
    },
    {
      "bufferView": 0,
      "byteOffset": 11520,
      "componentType": 5125,
      "count": 2880,
      "type": "SCALAR"
    },
    {
      "bufferView": 2,
      "byteOffset": 26832,
      "componentType": 5126,
      "count": 130,
      "max": [
        1.0,
        1.0,
        1.0
      ],
      "min": [
        -1.0,
        -1.0,
        -1.0
      ],
      "type": "VEC3"
    },
    {
      "bufferView": 2,
      "byteOffset": 28392,
      "componentType": 5126,
      "count": 130,
      "max": [
        0.7278876900672913,
        0.685696542263031,
        0.7278876304626465
      ],
      "min": [
        -0.7278876900672913,
        -0.6856964826583862,
        -0.7278876900672913
      ],
      "type": "VEC3"
    },
    {
      "bufferView": 1,
      "byteOffset": 8944,
      "componentType": 5126,
      "count": 130,
      "max": [
        1.0,
        0.9900000095367432
      ],
      "min": [
        0.0,
        0.0
      ],
      "type": "VEC2"
    },
    {
      "bufferView": 0,
      "byteOffset": 23040,
      "componentType": 5125,
      "count": 372,
      "type": "SCALAR"
    },
    {
      "bufferView": 2,
      "byteOffset": 29952,
      "componentType": 5126,
      "count": 263,
      "max": [
        0.9812141060829163,
        -0.27604639530181885,
        0.9812136888504028
      ],
      "min": [
        -0.9812137484550476,
        -6.214775085449219,
        -0.9812144637107849
      ],
      "type": "VEC3"
    },
    {
      "bufferView": 2,
      "byteOffset": 33108,
      "componentType": 5126,
      "count": 263,
      "max": [
        0.9991552233695984,
        1.0,
        0.9991552233695984
      ],
      "min": [
        -0.9991552233695984,
        0.041097383946180344,
        -0.9991551637649536
      ],
      "type": "VEC3"
    },
    {
      "bufferView": 1,
      "byteOffset": 9984,
      "componentType": 5126,
      "count": 263,
      "max": [
        1.0000001192092896,
        0.4375
      ],
      "min": [
        0.0,
        0.0
      ],
      "type": "VEC2"
    },
    {
      "bufferView": 0,
      "byteOffset": 24528,
      "componentType": 5125,
      "count": 1248,
      "type": "SCALAR"
    },
    {
      "bufferView": 2,
      "byteOffset": 36264,
      "componentType": 5126,
      "count": 130,
      "max": [
        1.0,
        1.0,
        1.0
      ],
      "min": [
        -1.0,
        -1.0,
        -1.0
      ],
      "type": "VEC3"
    },
    {
      "bufferView": 2,
      "byteOffset": 37824,
      "componentType": 5126,
      "count": 130,
      "max": [
        0.7278876900672913,
        0.685696542263031,
        0.7278876304626465
      ],
      "min": [
        -0.7278876900672913,
        -0.6856964826583862,
        -0.7278876900672913
      ],
      "type": "VEC3"
    },
    {
      "bufferView": 1,
      "byteOffset": 12088,
      "componentType": 5126,
      "count": 130,
      "max": [
        1.0,
        0.9900000095367432
      ],
      "min": [
        0.0,
        0.0
      ],
      "type": "VEC2"
    },
    {
      "bufferView": 0,
      "byteOffset": 29520,
      "componentType": 5125,
      "count": 372,
      "type": "SCALAR"
    },
    {
      "bufferView": 2,
      "byteOffset": 39384,
      "componentType": 5126,
      "count": 263,
      "max": [
        0.9812141060829163,
        -0.27604639530181885,
        0.9812136888504028
      ],
      "min": [
        -0.9812137484550476,
        -6.214775085449219,
        -0.9812144637107849
      ],
      "type": "VEC3"
    },
    {
      "bufferView": 2,
      "byteOffset": 42540,
      "componentType": 5126,
      "count": 263,
      "max": [
        0.9991552233695984,
        1.0,
        0.9991552233695984
      ],
      "min": [
        -0.9991552233695984,
        0.041097383946180344,
        -0.9991551637649536
      ],
      "type": "VEC3"
    },
    {
      "bufferView": 1,
      "byteOffset": 13128,
      "componentType": 5126,
      "count": 263,
      "max": [
        1.0000001192092896,
        0.4375
      ],
      "min": [
        0.0,
        0.0
      ],
      "type": "VEC2"
    },
    {
      "bufferView": 0,
      "byteOffset": 31008,
      "componentType": 5125,
      "count": 1248,
      "type": "SCALAR"
    },
    {
      "bufferView": 2,
      "byteOffset": 45696,
      "componentType": 5126,
      "count": 130,
      "max": [
        1.0,
        1.0,
        1.0
      ],
      "min": [
        -1.0,
        -1.0,
        -1.0
      ],
      "type": "VEC3"
    },
    {
      "bufferView": 2,
      "byteOffset": 47256,
      "componentType": 5126,
      "count": 130,
      "max": [
        0.7278876900672913,
        0.685696542263031,
        0.7278876304626465
      ],
      "min": [
        -0.7278876900672913,
        -0.6856964826583862,
        -0.7278876900672913
      ],
      "type": "VEC3"
    },
    {
      "bufferView": 1,
      "byteOffset": 15232,
      "componentType": 5126,
      "count": 130,
      "max": [
        1.0,
        0.9900000095367432
      ],
      "min": [
        0.0,
        0.0
      ],
      "type": "VEC2"
    },
    {
      "bufferView": 0,
      "byteOffset": 36000,
      "componentType": 5125,
      "count": 372,
      "type": "SCALAR"
    },
    {
      "bufferView": 2,
      "byteOffset": 48816,
      "componentType": 5126,
      "count": 263,
      "max": [
        0.9812141060829163,
        -0.27604639530181885,
        0.9812136888504028
      ],
      "min": [
        -0.9812137484550476,
        -6.214775085449219,
        -0.9812144637107849
      ],
      "type": "VEC3"
    },
    {
      "bufferView": 2,
      "byteOffset": 51972,
      "componentType": 5126,
      "count": 263,
      "max": [
        0.9991552233695984,
        1.0,
        0.9991552233695984
      ],
      "min": [
        -0.9991552233695984,
        0.041097383946180344,
        -0.9991551637649536
      ],
      "type": "VEC3"
    },
    {
      "bufferView": 1,
      "byteOffset": 16272,
      "componentType": 5126,
      "count": 263,
      "max": [
        1.0000001192092896,
        0.4375
      ],
      "min": [
        0.0,
        0.0
      ],
      "type": "VEC2"
    },
    {
      "bufferView": 0,
      "byteOffset": 37488,
      "componentType": 5125,
      "count": 1248,
      "type": "SCALAR"
    },
    {
      "bufferView": 2,
      "byteOffset": 55128,
      "componentType": 5126,
      "count": 130,
      "max": [
        1.0,
        1.0,
        1.0
      ],
      "min": [
        -1.0,
        -1.0,
        -1.0
      ],
      "type": "VEC3"
    },
    {
      "bufferView": 2,
      "byteOffset": 56688,
      "componentType": 5126,
      "count": 130,
      "max": [
        0.7278876900672913,
        0.685696542263031,
        0.7278876304626465
      ],
      "min": [
        -0.7278876900672913,
        -0.6856964826583862,
        -0.7278876900672913
      ],
      "type": "VEC3"
    },
    {
      "bufferView": 1,
      "byteOffset": 18376,
      "componentType": 5126,
      "count": 130,
      "max": [
        1.0,
        0.9900000095367432
      ],
      "min": [
        0.0,
        0.0
      ],
      "type": "VEC2"
    },
    {
      "bufferView": 0,
      "byteOffset": 42480,
      "componentType": 5125,
      "count": 372,
      "type": "SCALAR"
    },
    {
      "bufferView": 2,
      "byteOffset": 58248,
      "componentType": 5126,
      "count": 263,
      "max": [
        0.9812141060829163,
        -0.27604639530181885,
        0.9812136888504028
      ],
      "min": [
        -0.9812137484550476,
        -6.214775085449219,
        -0.9812144637107849
      ],
      "type": "VEC3"
    },
    {
      "bufferView": 2,
      "byteOffset": 61404,
      "componentType": 5126,
      "count": 263,
      "max": [
        0.9991552233695984,
        1.0,
        0.9991552233695984
      ],
      "min": [
        -0.9991552233695984,
        0.041097383946180344,
        -0.9991551637649536
      ],
      "type": "VEC3"
    },
    {
      "bufferView": 1,
      "byteOffset": 19416,
      "componentType": 5126,
      "count": 263,
      "max": [
        1.0000001192092896,
        0.4375
      ],
      "min": [
        0.0,
        0.0
      ],
      "type": "VEC2"
    },
    {
      "bufferView": 0,
      "byteOffset": 43968,
      "componentType": 5125,
      "count": 1248,
      "type": "SCALAR"
    },
    {
      "bufferView": 2,
      "byteOffset": 64560,
      "componentType": 5126,
      "count": 130,
      "max": [
        1.0,
        1.0,
        1.0
      ],
      "min": [
        -1.0,
        -1.0,
        -1.0
      ],
      "type": "VEC3"
    },
    {
      "bufferView": 2,
      "byteOffset": 66120,
      "componentType": 5126,
      "count": 130,
      "max": [
        0.7278876900672913,
        0.685696542263031,
        0.7278876304626465
      ],
      "min": [
        -0.7278876900672913,
        -0.6856964826583862,
        -0.7278876900672913
      ],
      "type": "VEC3"
    },
    {
      "bufferView": 1,
      "byteOffset": 21520,
      "componentType": 5126,
      "count": 130,
      "max": [
        1.0,
        0.9900000095367432
      ],
      "min": [
        0.0,
        0.0
      ],
      "type": "VEC2"
    },
    {
      "bufferView": 0,
      "byteOffset": 48960,
      "componentType": 5125,
      "count": 372,
      "type": "SCALAR"
    },
    {
      "bufferView": 2,
      "byteOffset": 67680,
      "componentType": 5126,
      "count": 1118,
      "max": [
        3.3296384811401367,
        -2.623776435852051,
        4.954917907714844
      ],
      "min": [
        -3.1424753665924072,
        -7.027827262878418,
        1.5766310691833496
      ],
      "type": "VEC3"
    },
    {
      "bufferView": 2,
      "byteOffset": 81096,
      "componentType": 5126,
      "count": 1118,
      "max": [
        0.999980628490448,
        1.0,
        0.9998801350593567
      ],
      "min": [
        -0.9999806880950928,
        -1.0,
        -0.9998801350593567
      ],
      "type": "VEC3"
    },
    {
      "bufferView": 1,
      "byteOffset": 22560,
      "componentType": 5126,
      "count": 1118,
      "max": [
        1.0000001192092896,
        1.0
      ],
      "min": [
        0.0,
        0.0
      ],
      "type": "VEC2"
    },
    {
      "bufferView": 0,
      "byteOffset": 50448,
      "componentType": 5125,
      "count": 5760,
      "type": "SCALAR"
    },
    {
      "bufferView": 2,
      "byteOffset": 94512,
      "componentType": 5126,
      "count": 65,
      "max": [
        1.0358669757843018,
        -6.181323051452637,
        5.7756123542785645
      ],
      "min": [
        -1.234067678451538,
        -7.553396701812744,
        3.776867389678955
      ],
      "type": "VEC3"
    },
    {
      "bufferView": 2,
      "byteOffset": 95292,
      "componentType": 5126,
      "count": 65,
      "max": [
        0.915230929851532,
        1.0,
        0.9005553126335144
      ],
      "min": [
        -0.9152310490608215,
        -0.43474146723747253,
        -0.900555431842804
      ],
      "type": "VEC3"
    },
    {
      "bufferView": 1,
      "byteOffset": 31504,
      "componentType": 5126,
      "count": 65,
      "max": [
        0.9900000095367432,
        0.9900000095367432
      ],
      "min": [
        0.01000000536441803,
        0.5099999904632568
      ],
      "type": "VEC2"
    },
    {
      "bufferView": 0,
      "byteOffset": 73488,
      "componentType": 5125,
      "count": 186,
      "type": "SCALAR"
    },
    {
      "bufferView": 2,
      "byteOffset": 96072,
      "componentType": 5126,
      "count": 32082,
      "max": [
        5.32191276550293,
        -0.3338189125061035,
        5.2771148681640625
      ],
      "min": [
        -5.3219099044799805,
        -11.089189529418945,
        -5.366707801818848
      ],
      "type": "VEC3"
    },
    {
      "bufferView": 2,
      "byteOffset": 481056,
      "componentType": 5126,
      "count": 32082,
      "max": [
        1.0,
        1.0,
        1.0
      ],
      "min": [
        -1.0,
        -1.0,
        -1.0
      ],
      "type": "VEC3"
    },
    {
      "bufferView": 1,
      "byteOffset": 32024,
      "componentType": 5126,
      "count": 32082,
      "max": [
        1.000000238418579,
        1.0
      ],
      "min": [
        0.0,
        -1.1920928955078125e-07
      ],
      "type": "VEC2"
    },
    {
      "bufferView": 0,
      "byteOffset": 74232,
      "componentType": 5125,
      "count": 188400,
      "type": "SCALAR"
    }
  ],
  "asset": {
    "extras": {
      "author": "Angelina (https://sketchfab.com/angelinaadoptme)",
      "license": "CC-BY-4.0 (http://creativecommons.org/licenses/by/4.0/)",
      "source": "https://sketchfab.com/3d-models/adopt-me-pumpkin-bunny-pet-concept-75f38b74130a4b74995c4ab878a7d234",
      "title": "Adopt Me Pumpkin Bunny Pet Concept"
    },
    "generator": "Sketchfab-13.79.0",
    "version": "2.0"
  },
  "bufferViews": [
    {
      "buffer": 0,
      "byteLength": 827832,
      "name": "floatBufferViews",
      "target": 34963
    },
    {
      "buffer": 0,
      "byteLength": 288680,
      "byteOffset": 827832,
      "byteStride": 8,
      "name": "floatBufferViews",
      "target": 34962
    },
    {
      "buffer": 0,
      "byteLength": 866040,
      "byteOffset": 1116512,
      "byteStride": 12,
      "name": "floatBufferViews",
      "target": 34962
    }
  ],
  "buffers": [
    {
      "byteLength": 1982552,
      "uri": "scene.bin"
    }
  ],
  "images": [
    {
      "uri": "textures/Material.003_baseColor.png"
    },
    {
      "uri": "textures/Material.008_baseColor.png"
    },
    {
      "uri": "textures/Material.007_baseColor.png"
    },
    {
      "uri": "textures/Material.009_baseColor.png"
    },
    {
      "uri": "textures/Material.005_baseColor.png"
    },
    {
      "uri": "textures/Material.006_baseColor.png"
    },
    {
      "uri": "textures/Material.004_baseColor.png"
    }
  ],
  "materials": [
    {
      "doubleSided": true,
      "name": "Material.003",
      "pbrMetallicRoughness": {
        "baseColorTexture": {
          "index": 0
        },
        "metallicFactor": 0.0,
        "roughnessFactor": 0.5
      }
    },
    {
      "doubleSided": true,
      "name": "Material.008",
      "pbrMetallicRoughness": {
        "baseColorTexture": {
          "index": 1
        },
        "metallicFactor": 0.0,
        "roughnessFactor": 0.5
      }
    },
    {
      "doubleSided": true,
      "name": "Material.007",
      "pbrMetallicRoughness": {
        "baseColorTexture": {
          "index": 2
        },
        "metallicFactor": 0.0,
        "roughnessFactor": 0.5
      }
    },
    {
      "doubleSided": true,
      "name": "Material.009",
      "pbrMetallicRoughness": {
        "baseColorTexture": {
          "index": 3
        },
        "metallicFactor": 0.0,
        "roughnessFactor": 0.5
      }
    },
    {
      "doubleSided": true,
      "name": "Material.005",
      "pbrMetallicRoughness": {
        "baseColorTexture": {
          "index": 4
        },
        "metallicFactor": 0.0,
        "roughnessFactor": 0.5
      }
    },
    {
      "doubleSided": true,
      "name": "Material.006",
      "pbrMetallicRoughness": {
        "baseColorTexture": {
          "index": 5
        },
        "metallicFactor": 0.0,
        "roughnessFactor": 0.5
      }
    },
    {
      "doubleSided": true,
      "name": "Material.004",
      "pbrMetallicRoughness": {
        "baseColorTexture": {
          "index": 6
        },
        "metallicFactor": 0.0,
        "roughnessFactor": 0.5
      }
    }
  ],
  "meshes": [
    {
      "name": "Object_0",
      "primitives": [
        {
          "attributes": {
            "NORMAL": 1,
            "POSITION": 0,
            "TEXCOORD_0": 2
          },
          "indices": 3,
          "material": 0,
          "mode": 4
        }
      ]
    },
    {
      "name": "Object_1",
      "primitives": [
        {
          "attributes": {
            "NORMAL": 5,
            "POSITION": 4,
            "TEXCOORD_0": 6
          },
          "indices": 7,
          "material": 0,
          "mode": 4
        }
      ]
    },
    {
      "name": "Object_2",
      "primitives": [
        {
          "attributes": {
            "NORMAL": 9,
            "POSITION": 8,
            "TEXCOORD_0": 10
          },
          "indices": 11,
          "material": 1,
          "mode": 4
        }
      ]
    },
    {
      "name": "Object_3",
      "primitives": [
        {
          "attributes": {
            "NORMAL": 13,
            "POSITION": 12,
            "TEXCOORD_0": 14
          },
          "indices": 15,
          "material": 2,
          "mode": 4
        }
      ]
    },
    {
      "name": "Object_4",
      "primitives": [
        {
          "attributes": {
            "NORMAL": 17,
            "POSITION": 16,
            "TEXCOORD_0": 18
          },
          "indices": 19,
          "material": 1,
          "mode": 4
        }
      ]
    },
    {
      "name": "Object_5",
      "primitives": [
        {
          "attributes": {
            "NORMAL": 21,
            "POSITION": 20,
            "TEXCOORD_0": 22
          },
          "indices": 23,
          "material": 2,
          "mode": 4
        }
      ]
    },
    {
      "name": "Object_6",
      "primitives": [
        {
          "attributes": {
            "NORMAL": 25,
            "POSITION": 24,
            "TEXCOORD_0": 26
          },
          "indices": 27,
          "material": 1,
          "mode": 4
        }
      ]
    },
    {
      "name": "Object_7",
      "primitives": [
        {
          "attributes": {
            "NORMAL": 29,
            "POSITION": 28,
            "TEXCOORD_0": 30
          },
          "indices": 31,
          "material": 2,
          "mode": 4
        }
      ]
    },
    {
      "name": "Object_8",
      "primitives": [
        {
          "attributes": {
            "NORMAL": 33,
            "POSITION": 32,
            "TEXCOORD_0": 34
          },
          "indices": 35,
          "material": 1,
          "mode": 4
        }
      ]
    },
    {
      "name": "Object_9",
      "primitives": [
        {
          "attributes": {
            "NORMAL": 37,
            "POSITION": 36,
            "TEXCOORD_0": 38
          },
          "indices": 39,
          "material": 2,
          "mode": 4
        }
      ]
    },
    {
      "name": "Object_10",
      "primitives": [
        {
          "attributes": {
            "NORMAL": 41,
            "POSITION": 40,
            "TEXCOORD_0": 42
          },
          "indices": 43,
          "material": 3,
          "mode": 4
        }
      ]
    },
    {
      "name": "Object_11",
      "primitives": [
        {
          "attributes": {
            "NORMAL": 45,
            "POSITION": 44,
            "TEXCOORD_0": 46
          },
          "indices": 47,
          "material": 4,
          "mode": 4
        }
      ]
    },
    {
      "name": "Object_12",
      "primitives": [
        {
          "attributes": {
            "NORMAL": 49,
            "POSITION": 48,
            "TEXCOORD_0": 50
          },
          "indices": 51,
          "material": 5,
          "mode": 4
        }
      ]
    },
    {
      "name": "Object_13",
      "primitives": [
        {
          "attributes": {
            "NORMAL": 53,
            "POSITION": 52,
            "TEXCOORD_0": 54
          },
          "indices": 55,
          "material": 6,
          "mode": 4
        }
      ]
    }
  ],
  "nodes": [
    {
      "children": [
        1
      ],
      "matrix": [
        1.0,
        0.0,
        0.0,
        0.0,
        0.0,
        2.220446049250313e-16,
        -1.0,
        0.0,
        0.0,
        1.0,
        2.220446049250313e-16,
        0.0,
        0.0,
        0.0,
        0.0,
        1.0
      ],
      "name": "Sketchfab_model"
    },
    {
      "children": [
        2
      ],
      "name": "root"
    },
    {
      "children": [
        3,
        5,
        7,
        10,
        13,
        16,
        19
      ],
      "matrix": [
        1.0,
        0.0,
        0.0,
        0.0,
        0.0,
        2.220446049250313e-16,
        1.0,
        0.0,
        0.0,
        -1.0,
        2.220446049250313e-16,
        0.0,
        0.0,
        0.0,
        0.0,
        1.0
      ],
      "name": "GLTF_SceneRootNode"
    },
    {
      "children": [
        4
      ],
      "matrix": [
        0.384158194065094,
        -0.0,
        0.0,
        -0.0,
        0.0,
        1.0081456899642944,
        -0.0,
        -0.0,
        0.0,
        0.0,
        -0.35086527466773987,
        -0.0,
        -0.6201516389846802,
        3.860677719116211,
        0.0,
        1.0
      ],
      "name": "Ear.001_0"
    },
    {
      "mesh": 0,
      "name": "Object_4"
    },
    {
      "children": [
        6
      ],
      "matrix": [
        -0.384158194065094,
        0.0,
        0.0,
        0.0,
        0.0,
        1.0081456899642944,
        0.0,
        0.0,
        0.0,
        0.0,
        -0.35086527466773987,
        0.0,
        0.6229366064071655,
        3.860677719116211,
        0.0,
        1.0
      ],
      "name": "Ear_1"
    },
    {
      "mesh": 1,
      "name": "Object_6"
    },
    {
      "children": [
        8,
        9
      ],
      "matrix": [
        0.48362499475479126,
        -0.0,
        -0.0,
        -0.0,
        -0.0,
        -0.06557711958885193,
        -0.0,
        -0.0,
        -0.0,
        -0.0,
        0.48362499475479126,
        -0.0,
        0.8083343505859375,
        0.6661772727966309,
        0.7810516357421875,
        1.0
      ],
      "name": "Pet leg_2"
    },
    {
      "mesh": 2,
      "name": "Object_8"
    },
    {
      "mesh": 3,
      "name": "Object_9"
    },
    {
      "children": [
        11,
        12
      ],
      "matrix": [
        0.48362499475479126,
        -0.0,
        -0.0,
        -0.0,
        0.0,
        -0.06557711958885193,
        -0.0,
        -0.0,
        0.0,
        -0.0,
        0.48362499475479126,
        -0.0,
        -0.7299784421920776,
        0.6661772727966309,
        0.7810516357421875,
        1.0
      ],
      "name": "Pet leg.001_3"
    },
    {
      "mesh": 4,
      "name": "Object_11"
    },
    {
      "mesh": 5,
      "name": "Object_12"
    },
    {
      "children": [
        14,
        15
      ],
      "matrix": [
        0.48362499475479126,
        -0.0,
        0.0,
        -0.0,
        -0.0,
        -0.06557711958885193,
        0.0,
        -0.0,
        -0.0,
        -0.0,
        0.48362499475479126,
        -0.0,
        0.8083343505859375,
        0.6661772727966309,
        -0.7805110216140747,
        1.0
      ],
      "name": "Pet leg.002_4"
    },
    {
      "mesh": 6,
      "name": "Object_14"
    },
    {
      "mesh": 7,
      "name": "Object_15"
    },
    {
      "children": [
        17,
        18
      ],
      "matrix": [
        0.48362499475479126,
        -0.0,
        0.0,
        -0.0,
        0.0,
        -0.06557711958885193,
        0.0,
        -0.0,
        0.0,
        -0.0,
        0.48362499475479126,
        -0.0,
        -0.7299784421920776,
        0.6661772727966309,
        -0.7805110216140747,
        1.0
      ],
      "name": "Pet leg.003_5"
    },
    {
      "mesh": 8,
      "name": "Object_17"
    },
    {
      "mesh": 9,
      "name": "Object_18"
    },
    {
      "children": [
        20,
        21,
        22,
        23
      ],
      "matrix": [
        0.22524912655353546,
        0.0,
        0.0,
        0.0,
        0.0,
        0.22524912655353546,
        0.0,
        0.0,
        0.0,
        0.0,
        0.22524912655353546,
        0.0,
        0.0,
        3.7383151054382324,
        0.1360548436641693,
        1.0
      ],
      "name": "Pumpkin_6"
    },
    {
      "mesh": 10,
      "name": "Object_20"
    },
    {
      "mesh": 11,
      "name": "Object_21"
    },
    {
      "mesh": 12,
      "name": "Object_22"
    },
    {
      "mesh": 13,
      "name": "Object_23"
    }
  ],
  "samplers": [
    {
      "magFilter": 9729,
      "minFilter": 9987,
      "wrapS": 10497,
      "wrapT": 10497
    }
  ],
  "scene": 0,
  "scenes": [
    {
      "name": "Sketchfab_Scene",
      "nodes": [
        0
      ]
    }
  ],
  "textures": [
    {
      "sampler": 0,
      "source": 0
    },
    {
      "sampler": 0,
      "source": 1
    },
    {
      "sampler": 0,
      "source": 2
    },
    {
      "sampler": 0,
      "source": 3
    },
    {
      "sampler": 0,
      "source": 4
    },
    {
      "sampler": 0,
      "source": 5
    },
    {
      "sampler": 0,
      "source": 6
    }
  ]
}
